<?xml version="1.0" standalone="no"?>
<!DOCTYPE svg PUBLIC "-//W3C//DTD SVG 1.1//EN"
"http://www.w3.org/Graphics/SVG/1.1/DTD/svg11.dtd">
<svg width="95.8741mm" height="184.708mm" viewBox="-214.302 180.09 95.8741 184.708" xmlns="http://www.w3.org/2000/svg" version = "1.1">
<title>PartieD_T42.123dx</title>
<desc> made with 123D Design </desc>
<path d="M -187.264 318.561 L -187.275 318.533 L -189.555 312.668 L -189.566 312.639 L -191.75 306.62 L -191.761 306.591 L -191.771 306.561 L -193.837 300.453 L -193.847 300.424 L -195.777 294.292 L -195.786 294.262 L -197.564 288.167 L -197.573 288.138 L -197.581 288.109 L -199.201 282.105 L -199.208 282.076 L -200.67 276.208 L -200.676 276.18 L -201.349 273.31 L -201.355 273.282 L -201.99 270.459 L -201.996 270.432 L -202.595 267.659 L -203.159 264.939 L -203.164 264.913 L -203.696 262.247 L -203.701 262.222 L -204.2 259.613 L -204.671 257.061 L -204.675 257.036 L -205.117 254.541 L -205.121 254.517 L -205.537 252.078 L -205.929 249.694 L -205.933 249.671 L -206.647 245.058 L -206.65 245.035 L -206.653 245.014 L -207.284 240.586 L -207.287 240.565 L -207.841 236.289 L -207.844 236.269 L -207.846 236.249 L -208.329 232.089 L -208.745 228.009 L -208.749 227.969 L -209.099 223.933 L -209.103 223.894 L -209.391 219.877 L -209.393 219.838 L -209.62 215.821 L -209.786 211.793 L -209.788 211.754 L -209.895 207.71 L -209.895 207.698 L -209.895 207.684 L -209.944 203.608 L -209.877 203.607 L -190.043 203.538 L -190.043 203.505 L -190.078 193.538 L -190.095 193.538 L -195.078 193.556 L -195.078 193.539 L -195.096 188.556 L -195.029 188.555 L -175.096 188.486 L -175.096 188.502 L -175.078 193.486 L -175.095 193.486 L -180.078 193.503 L -180.078 193.536 L -180.043 203.503 L -179.906 203.503 L -138.931 203.359 L -138.931 203.371 L -138.932 203.389 L -139.03 207.021 L -139.069 210.635 L -139.069 210.665 L -139.048 214.263 L -139.048 214.293 L -138.967 217.879 L -138.966 217.908 L -138.825 221.488 L -138.625 225.071 L -138.623 225.1 L -138.365 228.703 L -138.363 228.732 L -138.047 232.375 L -138.045 232.406 L -137.675 236.116 L -137.672 236.147 L -137.251 239.954 L -137.249 239.976 L -136.781 243.911 L -136.778 243.933 L -136.267 248.023 L -136.264 248.046 L -135.713 252.316 L -135.71 252.339 L -135.707 252.364 L -135.121 256.829 L -135.118 256.854 L -134.502 261.521 L -134.499 261.547 L -133.857 266.412 L -133.854 266.439 L -133.191 271.487 L -133.188 271.508 L -133.185 271.529 L -132.505 276.741 L -132.5 276.785 L -131.807 282.135 L -131.801 282.18 L -131.098 287.637 L -131.093 287.683 L -129.674 298.798 L -129.67 298.825 L -129.666 298.863 L -129.658 298.92 L -128.24 310.103 L -126.839 321.168 L -126.83 321.237 L -126.14 326.686 L -126.135 326.72 L -125.453 332.101 L -125.448 332.134 L -124.774 337.442 L -124.77 337.475 L -124.104 342.705 L -124.1 342.738 L -123.442 347.889 L -123.438 347.921 L -122.789 352.993 L -122.785 353.025 L -122.928 353.036 L -165.671 356.402 L -165.675 356.398 L -165.681 356.392 L -166.836 355.197 L -167.997 353.891 L -168.007 353.88 L -169.176 352.464 L -169.187 352.451 L -170.363 350.925 L -170.373 350.911 L -171.556 349.275 L -172.746 347.528 L -172.756 347.513 L -173.953 345.657 L -173.963 345.641 L -175.165 343.677 L -175.175 343.659 L -176.382 341.588 L -177.593 339.412 L -177.604 339.393 L -178.817 337.115 L -178.825 337.1 L -180.039 334.723 L -180.047 334.707 L -181.259 332.236 L -181.267 332.22 L -182.477 329.659 L -182.484 329.643 L -183.688 326.998 L -183.696 326.981 L -184.89 324.26 L -184.898 324.242 L -184.905 324.225 L -186.088 321.433 L -186.096 321.415 z  " fill= "none" stroke="rgb(0,0,255)" stroke-width="0.05mm" />
</svg>
