<?xml version="1.0" standalone="no"?>
<!DOCTYPE svg PUBLIC "-//W3C//DTD SVG 1.1//EN"
"http://www.w3.org/Graphics/SVG/1.1/DTD/svg11.dtd">
<svg width="94.723mm" height="168.411mm" viewBox="-214.25 42.8518 94.723 168.411" xmlns="http://www.w3.org/2000/svg" version = "1.1">
<title>PartieG_T42.123dx</title>
<desc> made with 123D Design </desc>
<path d="M -136.732 159.958 L -136.735 159.981 L -137.152 163.559 L -137.154 163.575 L -137.156 163.591 L -137.539 167.052 L -137.543 167.083 L -137.89 170.446 L -138.197 173.732 L -138.2 173.761 L -138.466 176.991 L -138.469 177.02 L -138.869 183.384 L -138.871 183.419 L -139.088 189.745 L -139.089 189.78 L -139.089 189.792 L -139.115 196.51 L -139.115 196.537 L -139.115 196.564 L -138.932 203.335 L -138.931 203.359 L -139.068 203.36 L -180.043 203.503 L -180.044 203.47 L -180.078 193.503 L -180.062 193.503 L -175.078 193.486 L -175.078 193.469 L -175.096 188.486 L -175.163 188.486 L -195.096 188.556 L -195.096 188.572 L -195.078 193.556 L -195.062 193.555 L -190.078 193.538 L -190.078 193.571 L -190.043 203.538 L -190.11 203.538 L -209.944 203.608 L -209.944 203.605 L -209.944 202.791 L -209.944 202.777 L -209.913 198.73 L -209.913 198.707 L -209.823 194.691 L -209.674 190.689 L -209.673 190.658 L -209.672 190.64 L -209.464 186.647 L -209.461 186.604 L -209.193 182.608 L -208.862 178.59 L -208.858 178.546 L -208.462 174.478 L -208.46 174.455 L -207.999 170.303 L -207.996 170.281 L -207.464 166.008 L -207.461 165.985 L -206.854 161.556 L -206.851 161.532 L -206.162 156.916 L -206.158 156.891 L -205.78 154.505 L -205.775 154.479 L -205.373 152.038 L -205.368 152.011 L -204.939 149.514 L -204.483 146.961 L -204.478 146.933 L -203.992 144.324 L -203.987 144.295 L -203.47 141.63 L -202.921 138.911 L -202.915 138.882 L -202.331 136.111 L -201.712 133.29 L -201.706 133.26 L -201.05 130.393 L -201.042 130.362 L -199.616 124.506 L -199.608 124.474 L -198.025 118.486 L -198.017 118.454 L -196.278 112.379 L -196.269 112.346 L -196.259 112.313 L -194.373 106.206 L -194.362 106.173 L -192.341 100.093 L -192.33 100.06 L -190.194 94.0712 L -190.183 94.039 L -187.953 88.2062 L -187.941 88.1748 L -186.798 85.337 L -186.785 85.3065 L -185.628 82.5312 L -185.615 82.5019 L -184.446 79.7964 L -183.268 77.1675 L -183.255 77.1396 L -182.071 74.5937 L -182.064 74.5802 L -180.876 72.1229 L -180.87 72.1099 L -179.68 69.7462 L -179.673 69.7336 L -178.483 67.4676 L -178.477 67.4554 L -178.471 67.4436 L -177.283 65.2788 L -177.276 65.2675 L -176.091 63.2064 L -176.085 63.1956 L -174.904 61.2403 L -174.898 61.2299 L -173.722 59.3818 L -173.716 59.3719 L -173.71 59.3625 L -172.539 57.6225 L -172.529 57.6084 L -171.365 55.9771 L -170.207 54.4548 L -170.197 54.4419 L -169.045 53.0286 L -169.035 53.0169 L -167.89 51.7127 L -167.884 51.7062 L -166.741 50.5069 L -166.598 50.5171 L -123.833 53.5842 L -123.834 53.5993 L -123.838 53.6304 L -124.379 58.1097 L -124.927 62.6511 L -124.932 62.6983 L -125.486 67.3014 L -126.046 71.9654 L -126.053 72.0211 L -126.619 76.7441 L -127.191 81.5231 L -127.198 81.58 L -128.358 91.2855 L -128.366 91.3461 L -128.373 91.4075 L -130.736 111.143 L -130.744 111.205 L -131.926 120.987 L -131.933 121.047 L -131.937 121.077 L -132.521 125.876 L -132.525 125.905 L -133.102 130.613 L -133.106 130.642 L -133.673 135.239 L -133.677 135.267 L -134.232 139.737 L -134.235 139.764 L -134.775 144.092 L -134.778 144.118 L -135.299 148.293 L -135.303 148.318 L -135.803 152.335 L -135.806 152.36 L -136.281 156.221 L -136.284 156.245 z  " fill= "none" stroke="rgb(0,0,255)" stroke-width="0.05mm" />
</svg>
